<?xml version="1.0" standalone="no"?><!DOCTYPE svg PUBLIC "-//W3C//DTD SVG 1.1//EN" "http://www.w3.org/Graphics/SVG/1.1/DTD/svg11.dtd"><svg t="1609838596886" class="icon" viewBox="0 0 1024 1024" version="1.1" xmlns="http://www.w3.org/2000/svg" p-id="6942" xmlns:xlink="http://www.w3.org/1999/xlink" width="200" height="200"><defs><style type="text/css"></style></defs><path d="M208 384a32 32 0 0 0-32-32H48a32 32 0 0 0-32 32v464a32 32 0 0 0 32 32h128a32 32 0 0 0 32-32V384z" fill="#F2EADB" p-id="6943"></path><path d="M208 368v512H32c130.288 6.816 178.784-198.96 176-512z" fill="#CEC7BA" p-id="6944"></path><path d="M284.304 317.136a48.032 48.032 0 0 0 21.264-36.752l11.888-178.208A40.896 40.896 0 0 1 358.256 64h0.048A137.696 137.696 0 0 1 496 201.696V320c0 12.736 5.056 24.944 14.064 33.936A47.936 47.936 0 0 0 544 368h367.84a96 96 0 0 1 94.848 110.816c-15.056 96.32-52.496 249.6-66 336-7.312 46.736-48.272 73.024-94.848 81.184-194.224 34.048-651.184-6.976-637.84-32V368l76.304-50.864z" fill="#F73B2F" p-id="6945"></path><path d="M1008 464c-17.792 182.96-69.536 368-112 416-114.496 51.648-404.384 58.336-688-16 413.2 49.072 713.104-141.28 800-400z" fill="#D23228" p-id="6946"></path><path d="M320 112c-3.216 0.224-4.976-2.928-5.776-7.92a36.736 36.736 0 0 1 48.816-40.432l59.232 21.536A112 112 0 0 1 496 190.448V320c-22.576-112.928-44.048-217.088-176-208z" fill="#D23228" p-id="6947"></path></svg>